<?xml version="1.0" encoding="utf-8"?>
<!-- Generator: Adobe Illustrator 16.0.0, SVG Export Plug-In . SVG Version: 6.00 Build 0)  -->
<!DOCTYPE svg PUBLIC "-//W3C//DTD SVG 1.1//EN" "http://www.w3.org/Graphics/SVG/1.1/DTD/svg11.dtd">
<svg version="1.1" id="Layer_1" xmlns="http://www.w3.org/2000/svg" xmlns:xlink="http://www.w3.org/1999/xlink" x="0px" y="0px"
	 width="146px" height="24px" viewBox="0 0 146 24" enable-background="new 0 0 146 24" xml:space="preserve">
<g>
	<title>background</title>
	<rect id="canvas_background" x="-1" y="-1" fill="none" width="802" height="602"/>
</g>
<g>
	<title>Layer 1</title>
	<g id="svg_1">
		<path id="svg_2" fill="#242D52" d="M40.014,16.809V8.553c0-1.577,0.366-2.82,1.098-3.73c0.733-0.91,1.65-1.365,2.75-1.365
			c2.158,0,3.237,1.577,3.237,4.731v8.62h3.782v-9.58c0-2.415-0.5-4.22-1.503-5.417c-1.002-1.197-2.433-1.795-4.294-1.795
			c-1.222,0-2.34,0.234-3.352,0.703c-1.006,0.463-1.885,1.164-2.56,2.043h-0.066c-0.98-1.831-2.62-2.746-4.922-2.746
			c-0.969,0-1.902,0.217-2.799,0.653c-0.912,0.447-1.714,1.088-2.353,1.878h-0.05V0.265H25.2v16.527h3.782V8.553
			c0-1.577,0.372-2.82,1.115-3.73c0.743-0.91,1.693-1.365,2.849-1.365c2.19,0,3.286,1.577,3.286,4.731v8.62H40.014z M61.115,17.057
			c2.246,0,3.997-0.826,5.252-2.481h0.05v2.217h3.616V0.265h-3.782V2.25h-0.066c-1.255-1.489-2.955-2.233-5.103-2.233
			c-2.146-0.015-4.203,0.859-5.681,2.415c-0.705,0.75-1.26,1.66-1.668,2.73c-0.413,1.1-0.62,2.266-0.611,3.44
			c0,1.258,0.203,2.416,0.61,3.475c0.408,1.06,0.964,1.952,1.669,2.68c0.717,0.737,1.581,1.314,2.535,1.696
			C58.946,16.86,60.027,17.066,61.115,17.057L61.115,17.057z M61.71,13.616c-1.399,0-2.538-0.466-3.419-1.398
			c-0.88-0.932-1.321-2.132-1.321-3.599c0-1.555,0.454-2.804,1.362-3.747c0.909-0.943,2.04-1.414,3.394-1.414
			c1.343,0,2.458,0.493,3.345,1.48c0.886,0.988,1.33,2.215,1.33,3.681c0,1.467-0.455,2.667-1.363,3.599
			C64.129,13.15,63.02,13.616,61.71,13.616z M88.822,16.809V7.064c0-2.393-0.536-4.166-1.61-5.319
			c-1.071-1.152-2.558-1.728-4.45-1.728c-1.053-0.006-2.095,0.214-3.056,0.645c-0.956,0.429-1.803,1.068-2.478,1.87H77.18V0.264
			h-3.783v16.527h3.783V8.487c0-1.588,0.387-2.823,1.163-3.706c0.777-0.882,1.814-1.323,3.113-1.323
			c0.595,0,1.104,0.077,1.528,0.231c0.424,0.155,0.795,0.406,1.115,0.753c0.319,0.348,0.555,0.819,0.709,1.415
			C84.963,6.452,85.04,7.18,85.04,8.04v8.769H88.822z M99.04,17.057c2.246,0,3.996-0.826,5.252-2.481h0.05v2.217h3.616V0.265h-3.782
			V2.25h-0.066c-1.254-1.489-2.955-2.233-5.103-2.233c-2.146-0.016-4.203,0.859-5.682,2.415c-0.704,0.75-1.261,1.66-1.668,2.73
			c-0.413,1.1-0.619,2.266-0.61,3.44c0,1.258,0.203,2.416,0.61,3.475c0.407,1.06,0.964,1.952,1.668,2.68
			c0.718,0.737,1.581,1.314,2.536,1.696C96.871,16.86,97.951,17.065,99.04,17.057z M99.634,13.616c-1.397,0-2.538-0.466-3.418-1.398
			c-0.881-0.932-1.321-2.132-1.321-3.599c0-1.555,0.455-2.804,1.362-3.747c0.908-0.943,2.04-1.414,3.394-1.414
			c1.344,0,2.459,0.493,3.345,1.48c0.886,0.988,1.33,2.215,1.33,3.681c0,1.467-0.455,2.667-1.363,3.599
			C102.055,13.15,100.943,13.616,99.634,13.616z M118.704,23.741c1.2,0,2.274-0.14,3.22-0.423c0.947-0.28,1.743-0.672,2.387-1.174
			c0.648-0.506,1.191-1.133,1.603-1.845c0.429-0.741,0.737-1.546,0.916-2.383c0.188-0.86,0.28-1.804,0.28-2.829V0.265h-3.781v1.737
			h-0.066c-0.678-0.648-1.477-1.154-2.353-1.49c-0.883-0.341-1.821-0.515-2.767-0.512c-1.509,0-2.863,0.358-4.063,1.075
			c-1.2,0.717-2.135,1.713-2.801,2.987c-0.666,1.273-0.998,2.705-0.998,4.293c0,1.61,0.35,3.038,1.049,4.286
			c0.699,1.246,1.66,2.203,2.882,2.869c1.222,0.668,2.599,1.002,4.129,1.002c2.048,0,3.716-0.674,5.005-2.019h0.065v1.753
			c0,1.17-0.431,2.141-1.288,2.912c-0.859,0.771-2.07,1.158-3.635,1.158c-1.067,0-2.006-0.133-2.815-0.397s-1.741-0.678-2.799-1.239
			l-0.892,3.34c0.925,0.553,1.966,0.977,3.121,1.274C116.26,23.592,117.46,23.741,118.704,23.741z M118.836,13.021
			c-1.365,0-2.49-0.435-3.377-1.3c-0.887-0.865-1.33-2.026-1.33-3.482c0-1.4,0.436-2.542,1.305-3.425
			c0.871-0.882,2.004-1.323,3.402-1.323c1.332,0,2.441,0.435,3.328,1.307c0.886,0.871,1.33,2.002,1.33,3.391
			c0,1.401-0.434,2.556-1.297,3.466c-0.864,0.91-1.985,1.365-3.361,1.365V13.021z M137.922,17.057c1.542,0,2.898-0.281,4.071-0.844
			s2.133-1.322,2.882-2.283l-2.643-2.266c-1.034,1.301-2.405,1.952-4.112,1.952c-1.21,0-2.237-0.337-3.08-1.011
			c-0.842-0.671-1.384-1.592-1.627-2.761h12.024c0.065-0.397,0.099-0.9,0.099-1.506c0-1.599-0.325-3.027-0.976-4.285
			c-0.63-1.237-1.605-2.266-2.807-2.961c-1.222-0.717-2.632-1.075-4.229-1.075c-1.093-0.008-2.177,0.203-3.188,0.62
			c-0.99,0.414-1.844,0.99-2.561,1.729c-0.715,0.739-1.276,1.638-1.684,2.696c-0.406,1.06-0.611,2.212-0.611,3.458
			c0,1.688,0.369,3.185,1.106,4.492c0.738,1.307,1.746,2.309,3.022,3.004C134.889,16.71,136.326,17.057,137.922,17.057
			L137.922,17.057z M141.736,6.783h-8.256c0.264-1.059,0.775-1.878,1.535-2.457c0.76-0.579,1.662-0.868,2.709-0.868
			c1.057,0,1.93,0.298,2.617,0.893C141.029,4.947,141.495,5.757,141.736,6.783z"/>
		<g id="svg_3">
			<path id="svg_4" fill="#F3603C" d="M2.786,10.286c1.538,0,2.785,1.279,2.785,2.856C5.571,14.721,4.324,16,2.786,16
				C1.247,16,0,14.721,0,13.143C0,11.565,1.247,10.286,2.786,10.286z M2.786,0C4.324,0,5.57,1.28,5.57,2.857
				c0,1.578-1.247,2.857-2.785,2.857S0,4.435,0,2.857C0,1.28,1.247,0,2.786,0z M12.814,0C14.353,0,15.6,1.28,15.6,2.857
				c0,1.578-1.247,2.857-2.786,2.857c-1.538,0-2.785-1.279-2.785-2.857C10.029,1.28,11.276,0,12.814,0z"/>
			<ellipse id="svg_5" opacity="0.5" fill="#F3603C" enable-background="new    " cx="12.814" cy="13.257" rx="2.786" ry="2.857"/>
		</g>
	</g>
</g>
</svg>
